<?xml version="1.0" encoding="UTF-8"?>
<svg version="1.1" viewBox="0 0 2048 1636" width="687" height="549" xmlns="http://www.w3.org/2000/svg">
<path transform="translate(0)" d="m0 0h2048v1636h-2048z" fill="#0E2524"/>
<path transform="translate(1017,316)" d="m0 0 4 1 25 14 24 14 52 30 28 16 24 14 23 13 24 14 52 30 20 12 1 1v300l-8 5-24 12-23 13-22 12-23 13-24 14-8 5h-2l-1 3-10-3-11-1-10 3-9 8-3 8-16-1-9 2-7 6-5 8-14 4-6 4-5 10-3 9-5 2-4 2-2 6-4 8-2 8-1 10-1 1-10 1-2-1 2-10 6-9 12-14 8-9-5 4-13 11-11 12-9 10-9 4-2 1h-10l-18-3-3-1v-5l10-9 13-10 6-5 7-8 8-9 12-16-4 2-17 17-7 8-9 9-13 10-8 5-15 7-9-1-8-5-5-6-1-6 3-5 7-7 10-8 14-10 12-11 7-7 9-14 3-7-14 17-7 8-8 7-13 9-10 8-12 9-10 5-9-6-7-7-3-5v-6l6-8 2-3-4-2-11-9-13-13-7-8-8-7-26-12-36-18-46-22-13-5-1-1v-306l3-3 24-14 52-30 24-14 26-15 28-16 24-14 78-45z" fill="#B19452"/>
<path transform="translate(1018,378)" d="m0 0 35 20 52 30 24 14 78 45 23 13 9 6v173l-15 8-37 15-28 9-21 3-64 3-36 3-10 2-21-9h-13l-17 5-18 8-23 11-14 1-12-4-45-20-34-14-33-14v-174l1-7 28-16 24-14 78-45 24-14 26-15 28-16 10-6z" fill="#0D2524"/>
<path transform="translate(1017,316)" d="m0 0 4 1 25 14 24 14 52 30 28 16 24 14 23 13 24 14 52 30 20 12v128l-1 7-4 1-3-3-7 1-3 2-11 1h-11l-4-3-1 2-4 2h-3l-1 2-2-108-17-10-23-13-24-14-28-16-24-14-52-30-21-12-26-15-5-3-9 6-27 15-24 14-26 15-24 14-104 60-5 2-2 80h-3l-3-9-3-7h-5l-5 3-16-1v-3l7-1 15-1 1-2h2v-5l-1-1-31 1-2 5 4 6-4 4-4 9-3 3-1-1v-67l-1-1v-43l78-45 24-14 26-15 28-16 24-14 78-45z" fill="#C9B278"/>
<path transform="translate(1087,753)" d="m0 0 1 2 3 1v2l8 1 23-1h35l4-1h42l18 2 31 2 10 4 6 4 3 3h8l11-3 2-1 2 1v6l-8 5-24 12-23 13-22 12-23 13-24 14-8 5h-2l-1 3-10-3-11-1-10 3-9 8-3 8-16-1-9 2-7 6-5 8-14 4-6 4-5 10-3 9-5 2-4 2-2 6-4 8-2 8-1 10-1 1-10 1-2-1 2-10 6-9 12-14 8-9-5 4-13 11-11 12-9 10-9 4-2 1h-10l-18-3-3-1v-5l10-9 13-10 6-5 7-8 8-9 12-16-4 2-17 17-7 8-9 9-13 10-8 5-15 7-9-1-8-5-5-6-1-6 3-5 7-7 10-8 14-10 12-11 7-7 9-14 3-7-14 17-7 8-8 7-13 9-10 8-12 9-10 5-9-6-7-7-3-5v-6l6-8 5-5 8-6 9-6 10-10 7-8 12-14 9-11 9-9 7-8 12-13 9-11 2-2 25 1 4 1 1 7 8 11 11 9 13 6 13 1 12-5 5-4v-7l-6-14-3-15z" fill="#BBA163"/>
<path transform="translate(1293,475)" d="m0 0h1v177l-1 117-9 3-10 1-5-1-5-5-8-4-4-1-31-2-19-2h-42l-8 1h-37l-21 1-1-2h-2l-3-3v-2h-2l-4-11-5-4-14-6-26-9 1-4 36-3 64-3 21-3 36-12 31-13 12-6 1-117h1l1 50 8-4 4 2h11l11-1 3-2 7-1 3 2v2l4-1z" fill="#B19452"/>
<path transform="translate(2045)" d="m0 0h3v1636h-2048v-6h2045z" fill="#F2EEE3"/>
<path transform="translate(1008,509)" d="m0 0h20l13 4 11 6 10 9 8 13 4 13 1 8v55l-1 45h-112v-107l4-13 6-10 9-10 11-8z" fill="#EBDBAD"/>
<path transform="translate(928,757)" d="m0 0h19l24 4 4 2v2l6 2 5 3h2l2-5 5-5h1l-1 8-6 15-6 11-9 10-9 6-20 6-21 3 4 2 7 2 15 1-2 5-9 14-11 13-9 7-8 10-3 6-4-2-11-9-13-13-7-8-8-7-26-12-36-18-46-22-13-5v-17l1 2 4 2v2l6-1 6-4 9-3 3-3 17-2 17-1 9 1 3 1 2-1 24 1 16-1 11-1h24z" fill="#BBA163"/>
<path transform="translate(971,819)" d="m0 0 2 1 1 6 16 5 11 3 7-1 36-1h36l15 2 10 2 5 4 3 1 2 5 1 1 9-1 10-3 1-1h10l5 2h11l9-5h3l-2 4-10 6h-2l-1 3-10-3-11-1-10 3-9 8-3 8-16-1-9 2-7 6-5 8-14 4-6 4-5 10-3 9-5 2-4 2-2 6-4 8-2 8-1 10-1 1-10 1-2-1 2-10 6-9 12-14 8-9-5 4-13 11-11 12-9 10-9 4-2 1h-10l-18-3-3-1v-5l10-9 13-10 6-5 7-8 8-9 12-16-4 2-17 17-7 8-9 9-13 10-8 5-15 7-9-1-8-5-5-6-1-6 3-5 7-7 10-8 14-10 12-11 7-7 9-14 3-7-14 17-7 8-8 7-13 9-10 8-12 9-10 5-9-6-7-7-3-5v-6l6-8 5-5 8-6 9-6 10-10 7-8 12-14 7-8z" fill="#D0BE8B"/>
<path transform="translate(1155,396)" d="m0 0 5 1 25 14 19 11 29 17 28 16 29 17 3 2v128l-1 7-4 1-3-3-7 1-3 2-11 1h-11l-4-3-1 2-4 2h-3l-1 2-2-108-17-10-23-13-24-14-28-16-24-14-26-15-4-3 1-4h6l11 7 8 4 10 2 3 1h13l11-2 17-3 10-2 1-4-10-5-8-2-3-5-2-6-4-1z" fill="#EBDBAD"/>
<path transform="translate(912,377)" d="m0 0 3 1-2 3h-2l-1 3-17 12-6 4h-2l1 7 2 1h-5v2h-5v2l-10 4h-3l1 4 6 1 10 5 7 5 4 5 14-3 8-3 11-7 8-3h3l1-2 10-4 3-2 7-1v3l-26 15-24 14-104 60-5 2-2 80h-3l-3-9-3-7h-5l-5 3-16-1v-3l7-1 15-1 1-2h2v-5l-1-1-31 1-2 5 4 6-4 4-4 9-3 3-1-1v-67l-1-1v-43l78-45 24-14 26-15 28-16z" fill="#EBDBAD"/>
<path transform="translate(538,1065)" d="m0 0h31l11 3 9 5 9 9 5 10 2 7 1 8v18l-3 14-6 12-7 7-10 6-14 4-7 1h-10l-15-3-12-5-9-7-6-9-4-11-1-5v-26l3-12 6-11 7-7 12-6z" fill="#FAF9F6"/>
<path transform="translate(1e3 779)" d="m0 0 25 1 4 1 1 7 8 11 11 9 13 6 13 1 12-5 6-5 1-5 1 4 4 1 3 1 38 2 32 2 7 4 2 4 3 2h6l9-3 9-4 13-6 4 1 1-2 14-7 2 1-8 5-22 12-23 13-19 11-1-2-12 6h-11l-5-2h-10l-3 2-8 2-9 1-3-3v-4l-5-1-3-3-10-2-15-2h-36l-36 1-8 1-19-6-8-3-1-6-7 5 2-4 8-8 7-8 12-13 9-11z" fill="#C9B278"/>
<path transform="translate(1175,1066)" d="m0 0h64l11 4 6 5 6 12 1 5v15l-3 10-6 9-7 4-2 2 8 13 10 17 1 4-2 1h-23l-4-4-12-21-5-8h-16v32l-1 1h-25l-1-6z" fill="#F9F8F5"/>
<path transform="translate(981,1065)" d="m0 0h17l8 1v100l-2 1h-29l-6-9-16-27-18-30v65h-26l-1-61v-39h33l15 25 10 17 11 18 2 3 1-63z" fill="#FAF9F7"/>
<path transform="translate(1471,1065)" d="m0 0h35l11 4 6 4 5 6 4 11 1 10-5 1h-19l-3-1-2-9-5-4-7-1h-9l-9 2-3 4v8l1 4 4 1 32 1 9 1 11 6 4 5 3 8v18l-3 9-5 6-14 7-15 3h-17l-17-4-9-5-7-6-4-9-1-5v-8h27l2 9 4 4 8 2h10l9-2 4-2 2-4-1-7-3-3-3-1-30-1-12-3-8-4-6-7-3-8v-15l3-10 6-7 9-5z" fill="#F9F8F6"/>
<path transform="translate(2043,1623)" d="m0 0h1v6l-3 1h-2038v-1l20-2h66l36-1h28l37 1 47-1h59l28 1 32-1h58l43 1 38-1h167l71 1 48-1h41l36 1 44-1h42l43 1 43-1h64l32 1 36-1h70l28 1 47-1h188l34 1 49-1h41l50 1 48-1 77 1 49-1h33l34 1h85l3-3 2 3 42 1z" fill="#0A1D1E"/>
<path transform="translate(796,1065)" d="m0 0h52l20 1v21h-57v19h43v20l-1 1h-42v18h47l10 1v20l-1 1h-82l-1-33v-68z" fill="#F8F7F3"/>
<path transform="translate(714,1065)" d="m0 0h24l-2 4-20 20-8 7-13 13 6 7 9 10 9 11 12 13 9 11 4 5-1 1h-31l-7-9-11-12-9-11-7-7h-3l-1 2-1 36-2 1h-23l-1-1-1-13v-87h27v28l-1 5 8-7 26-26z" fill="#F9F7F4"/>
<path transform="translate(1307,1065)" d="m0 0h19l6 2 1 64 3 8 6 5 7 2h11l8-3 5-4 3-8 1-65 1-1h23l2 1v64l-2 10-6 12-8 8-13 6-13 3h-13l-16-4-11-6-7-7-6-12-2-8v-66z" fill="#F9F8F5"/>
<path transform="translate(1135,853)" d="m0 0h8l9 3 4 5v10l-4 10-5 6h-3l-4-5-10-4 6 7 2 2v15l-5 12-5 4-8 3-8-1-3-8-4-6-6-5h-2l6 7 3 10-2 8-4 6-5 4-12 2-4-5-6-8-6-5-1 1 7 8 2 4-1 5-3 5-7 6-7 2h-17l-5-4v-4l8-2-1-7v-11l3-6 6-4 4 1 1-4 1-9 3-5 6-5 5-2 10 2 2 1v-7l3-7 5-4 6-2h12l12 3v-11l5-7 5-3z" fill="#EAD9AB"/>
<path transform="translate(1017,316)" d="m0 0 4 1 25 14 24 14 16 9v2l6 4 2 7v3h-2l-1 2-21-1-23 1-16 2-5 4-1-1-2 2-2-2-5-1-15 6-9 1-4-4-3-5-11-4-9-3-7-1v-2l-5 1-2-3h2v-2h2l2-4 3-5 12-7v-2l25-14z" fill="#BBA163"/>
<path transform="translate(743,476)" d="m0 0h1l1 41 1 3v65l3-3 4-10 3-3-4-5 2-1 1-4 7-1 24-1 2 4-1 3h-2l-1 3-15 1h-5l-1 2 16 1 4-3h5l2 4 3 9 2 4h1l1-48h1v101l-1 20-4-5-1-6-8 1-5 3-13 3-15-1-4 4h-2l-1-28-1-104z" fill="#BCA264"/>
<path transform="translate(876,800)" d="m0 0 6 1 6 2 1-2 1 4 14 3 10 2 8 3 20-1 7-2h8l3-1-1 3-14 4-21 3 4 2 7 2 15 1-2 5-9 14-11 13-9 7-8 10-3 6-4-2-11-9-13-13-7-8-8-7-26-12-20-10-1-2 7 2 2-1 6 1 11-3 3-2 25-4 1-4 2-4z" fill="#C9B278"/>
<path transform="translate(1581,1065)" d="m0 0h64l19 1v21h-30v79h-27v-71l1-8h-32v-21z" fill="#F9F7F4"/>
<path transform="translate(395,1065)" d="m0 0h47l19 1v20l-1 1h-30v79h-27v-49l1-30h-32v-21z" fill="#F9F8F5"/>
<path transform="translate(1046,1066)" d="m0 0h89v21l-30 1-1 78h-26v-79h-32z" fill="#FBFBF9"/>
<path transform="translate(1061,629)" d="m0 0h5l8 9v24h-112v-29l2 4 4-5 5-1 16 1h53l16-2z" fill="#BBA163"/>
<path transform="translate(1142,388)" d="m0 0 4 1 11 6-2 1 2 5 3 1 3 6 2 2v3l8 1 11 6v4l-15 4-22 3-5 1h-11l-8-2-10-3-10-7-5-2-5-1-2 4-21-12 1-5-6-5 2-5h7l6-1h56z" fill="#D0BE8B"/>
<path transform="translate(1057,601)" d="m0 0h7l1 3h-2l1 3 3 3 5 13 2 3v12l-8-8-24 3h-53l-18-1-4 2-4 5-1-6v-16h1l1 5 5-9 6-5h-2l-1-3 1-2h7l8 1 21-1h18l8-1h16z" fill="#D1BF8C"/>
<path transform="translate(1031,722)" d="m0 0 9 1 31 11 9 5 4 5 3 9 3 23 3 11 5 12v7l-8 6-10 4-13-1-16-8-11-10-6-9v-7l-29-1-9 10-9 11-10 10-7 8-11 12-9 11-18 20-8 7-11 7-3 3-2-1 4-8 7-8 11-9 11-14 9-15h-15l-11-3v-3l21-3 20-6 9-6 8-9 8-15 5-14 1-6h2l7 8 9 3 10 1h11l4-10h1v20l4 8 8 10 10 7 8 3h14l8-4h2l-2-8-5-11-3-12-3-18-3-7-3-4-5 1-11 6 2-4 8-6-4-3-27-12-7-4z" fill="#0D2524"/>
<path transform="translate(1025,879)" d="m0 0 11 3 5 4h10l8-3h6v3l-6 4-5 10-3 9-5 2-4 2-2 6-4 8-2 8-1 10-1 1-10 1-2-1 2-10 6-9 12-14 8-9-5 4-13 11-11 12-9 10-9 4-2 1h-10l-18-3-3-1v-5l10-9 13-10 6-5 7-8 8-9 12-16z" fill="#EAD9AB"/>
<path transform="translate(919,373)" d="m0 0 3 1-2 1-3 5-5 4-2 4h14l22 6 5 4 4 7 9-1 6-1v4l-10 6-3-1-7 2-9 4-17 7-13 8-11 3-8 1-4-6-9-6-13-5-1-4 9-4h4v-2h5v-2l3-1-1-7 11-7 14-10 4-5 1-3z" fill="#D1BE8B"/>
<path transform="translate(912,377)" d="m0 0 3 1-2 3h-2l-1 3-17 12-6 4h-2l1 7 2 1h-5v2h-5v2l-10 4h-3l1 4 6 1 10 5 7 5 4 5 14-3 8-3 11-7 8-3h3l1-2 10-4 3-2 7-1v3l-26 15-24 14-14 8h-11l-11 3h-6l-2-4-5-2-9-3-21-5-3-2v-2h2l-1-3 11-9 3-5 3-3 56-32z" fill="#E4CE91"/>
<path transform="translate(549,1085)" d="m0 0h9l10 3 7 6 3 5 2 9v15l-3 12-4 6-10 5-4 1h-9l-9-2-6-4-6-10-2-14 2-16 4-8 8-6z" fill="#0E2624"/>
<path transform="translate(1155,396)" d="m0 0 5 1 25 14 19 11 29 17 4 3-4 1-12-2v2l-4 2h-13l-20 2-4 1h-9l-11-1-7 1 1 6-4 1-25-14-17-10-15-9-1-3 1-2h6l11 7 8 4 10 2 3 1h13l11-2 17-3 10-2 1-4-10-5-8-2-3-5-2-6-4-1z" fill="#E3CD91"/>
<path transform="translate(1135,853)" d="m0 0h8l9 3 4 5v10l-4 10-5 6h-3l-4-5-10-4 6 7 2 2v15l-5 12-5 4-8 3-8-1-3-8-3-6h2l-3-5-3-1-1-5-5-2v-3l-8 2-3-2v3l-3-1 2-10 3-5 4-3 6-2h12l12 3v-11l5-7 5-3z" fill="#E4CE91"/>
<path transform="translate(1008,509)" d="m0 0h20l13 4 11 6 10 9 2 4v3l-5 2-1 4-1 1 3 3-4 1h-48l-21-3-1-2h3v-2h-10l-3-5 1-4h2l1-4 2-5 10-7z" fill="#D1BF8C"/>
<path transform="translate(1292,536)" d="m0 0h1v66l-1 7-4 1-3-3-7 1-3 2-11 1h-11l-4-3-1 2-4 2h-3l-1 2v-33l3-1 4-10h2l-2-5v-6l5-3 7 1 4 2 10-2 9-1 3 3-5 5-4 2h-5l-2 3h8l2-2 4 1 2 1 5 12 2 1z" fill="#CAB379"/>
<path transform="translate(1239,562)" d="m0 0h1l1 50 8-4 4 2h11l11-1 3-2 7-1 3 2v2l4-1v-7h1v40l-1 7-8-1-10 4-13 3h-8l-5-1-5 3h-2l-1 2-1-35z" fill="#BCA264"/>
<path transform="translate(797,537)" d="m0 0h1v61l-1 16-4-1-3-6-8 2-9 1-2 1h-17l-5 3-4 1v-30h2l7-14 2-2-4-5 2-1 1-4 7-1 24-1 2 4-1 3h-2l-1 3-15 1h-5l-1 2 16 1 4-3h5l2 4 3 9 2 4h1z" fill="#CAB379"/>
<path transform="translate(2043,1623)" d="m0 0h1v6l-3 1h-73l-981-1 1-2 42-1h64l32 1 36-1h70l28 1 47-1h188l34 1 49-1h41l50 1 48-1 77 1 49-1h33l34 1h85l3-3 2 3 42 1z" fill="#071519"/>
<path transform="translate(1081,757)" d="m0 0 2 3 3 19 4 12 4 8v6l-10 5h-14l-10-4-10-8-9-12-2-5v-11l2-7h13l7-1h6l2 3h9v-3h2z" fill="#BBA163"/>
<path transform="translate(937,856)" d="m0 0 2 1-5 12-2 6 5 5 7 3 11-3 3-1v-2h2v-2h2l2-4 7-6 10-6h3l-1 4-8 10-8 8-12 8-26 20-10 5-9-6-7-7-3-5v-6l6-8 5-5 8-6 9-6z" fill="#E3CD90"/>
<path transform="translate(966,893)" d="m0 0h5l1 6 5 4 3 1v2l6-2 2 1v-2l8 1-1 4-8 8-13 10-8 5-15 7-9-1-8-5-5-6-1-6 3-5 7-7 10-8 9-6z" fill="#EADAAB"/>
<path transform="translate(851,832)" d="m0 0 16 2 6 1h32l13 5 4 4 7 1 4-1v-2h2l1-3 6-5 1 3-8 11-8 9-8 6-8 10-3 6-4-2-11-9-13-13-7-8-8-7-14-7z" fill="#D1BF8C"/>
<path transform="translate(1074,562)" d="m0 0h1v55l-1 9-3-3-5-13v-2l-4-2 1-2h2l-1-2-13 1h-17l-12 1h-19l-18 1-10-1-2-1v5h2l-1 2-5 5-4 7-2 4-1-9v-20l5-2 7-3 22 1 9-1h41l18-2 6 3-2-13 4 1 1 2z" fill="#E3CD90"/>
<path transform="translate(1239,506)" d="m0 0h1l1 40 4-4 3-5 14 1 17-2 5-1 3 2 5-1v46l-4-2-3-8v-3l-6-1-2 2h-10l2-5h8l7-7-5-1-14 2-4 1-2-2-7-1-4 2v8l1 3h-2l-1 5-3 5-3 1-1-19z" fill="#E4CE91"/>
<path transform="translate(781,537)" d="m0 0h7l4 2 1 2 4 1v43h-3l-3-9-3-7h-5l-5 3-16-1v-3l7-1 15-1 1-2h2v-5l-1-1-31 1-2 5 4 6-4 4-4 9-3 3-1-1v-39l2 3h3l2-7 4-3 21-1z" fill="#E4CE91"/>
<path transform="translate(962,617)" d="m0 0h1l1 8 4-4 9-2 7 1 27-1h39l13-2 5 1 1 4 4 2 1 2v12l-8-8-24 3h-53l-18-1-4 2-4 5-1-6z" fill="#CAB379"/>
<path transform="translate(1e3 779)" d="m0 0 25 1 4 1 1 7 8 11 11 9 13 6 13 2-3 2-12-1-9-3-7-3h-19l-20-4-9-2-5-1-3-3 1-7 2-4 6-8z" fill="#BBA163"/>
<path transform="translate(1252,556)" d="m0 0 7 1 4 2 10-2 9-1 3 3-5 5-4 2h-5l-2 3h8l2-2 4 1 2 1 5 12 2 1v6l-3 1v-2h-2v-2h-8l-4 2-9 2h-12l-9-1v2h-5v-9l3-1 4-10h2l-2-5v-6z" fill="#D1BF8C"/>
<path transform="translate(980,523)" d="m0 0 2 1-3 6h-2l1 7 5 1 6 1v2l-2 1 21 3h51l-3-4 2-1 1-3 4-3 1-2 6 9 4 13-1 4-5 1 1-9-6 3h-42l-28-1h-13l-11 2v4l3 3-4 1-6-3 1-9 6-14 8-10z" fill="#E3CD90"/>
<path transform="translate(986,868)" d="m0 0 2 3v4l5 1 4 4 10 1 7-3h5l1 4-17 17-6 7-1-2h-6l-2-1v2l-8 1v-2l-4-1-5-4-1-5h-12l5-5 10-9 8-8z" fill="#E3CD90"/>
<path transform="translate(650,1234)" d="m0 0 12 1 6 4 3 6v14l-3 6-4 4-9 2-10-1-6-4-4-8v-11l4-8 6-4z" fill="#DDC789"/>
<path transform="translate(779,557)" d="m0 0h7l2 4-1 3h-2l-1 3-15 1h-5l-1 2 16 1 4-3h5l2 4 3 9 2 4h2v8l-4-2-2-5h-7l-13 3h-17l-6 4-3-1v-7h2l7-14 2-2-4-5 2-1 1-4 7-1z" fill="#D1BF8C"/>
<path transform="translate(1025,879)" d="m0 0 11 3 5 4h10l8-3h6v3l-6 4-5 10-3 9-5 2-4 2-2 6-4 8-2 8-1 10-1 1-10 1-2-1 2-10 6-9 12-14 8-9-3-1-3 3h-15l-5-7-1-3-4-1-5 5-3-1 10-12z" fill="#E3CD91"/>
<path transform="translate(1066,1235)" d="m0 0h22l5 3 4 8v12l-3 8-6 4-13 1-9-1-1-7v-27z" fill="#DCC688"/>
<path transform="translate(1008,509)" d="m0 0h20l13 4 11 6 5 5 1 3-7 1h-9l-10-1h-18l-6-1-20 1-2-4 1-4 5-5z" fill="#BBA163"/>
<path transform="translate(1135,853)" d="m0 0h8l9 3 4 5v10l-4 10-5 6h-3l-4-5-10-4 4 5-7-1-3-3-6-3 3-1v-11l5-7 5-3z" fill="#DFC98C"/>
<path transform="translate(1063,650)" d="m0 0 6 2 1 3 4 1v6h-96l-12-1 1-7 2-2 5-1 4 1 30 2h20v2l11-1v-1l16-2z" fill="#B19452"/>
<path transform="translate(1202,1087)" d="m0 0h30l3 3 1 2v15l-3 5-4 1h-27z" fill="#0D2424"/>
<path transform="translate(1123,856)" d="m0 0 2 1-2 5-1 2-1 11-12-2h-12l-9 4-3 5-2 10-12-2-8 4-4 4-2 7v7l-2 3-4-1-6 4-2 5v11l1 7-5 2h-5v-13l4-10 4-7 5-4 4-1 4-13 4-6 8-5 12-3 6-9 6-5 10-2 15 1 2-7z" fill="#0D2524"/>
<path transform="translate(238,1235)" d="m0 0h21l5 3 2 5v8l-4 6-1 4 5 7-1 2h-7l-5-7-1-3-7-1 1 10-1 1h-8v-34z" fill="#DDC689"/>
<path transform="translate(1216,1235)" d="m0 0h22l5 4 1 2v11l-4 6 1 6 3 3v3h-8l-6-10-5-1-1 11h-8z" fill="#DFC88B"/>
<path transform="translate(834,1235)" d="m0 0 9 1 7 10 6 10 1-18 1-3h6l1 1v34h-8l-4-4-11-17-1 21h-8v-34z" fill="#DDC689"/>
<path transform="translate(1527,1235)" d="m0 0h6l6 12 7 21v2h-7l-3-4h-13l-4 4h-6l3-11 4-12 5-10z" fill="#DEC88B"/>
<path transform="translate(1355,1235)" d="m0 0h5l5 8 7 20 1 7-7-1-3-3h-12l-5 4h-5l2-9 5-15 5-9z" fill="#DFC98C"/>
<path transform="translate(1586,1235)" d="m0 0h14l5 3 3 3v4l-7-1-6-3-7 1-2 4 1 2 13 1 5 2 4 4v8l-4 5-4 2h-16l-6-5-1-5 1-2 6 2 3 3h13v-6l-13-1-7-3-3-5 1-7 5-5z" fill="#DDC689"/>
<path transform="translate(373,1235)" d="m0 0h14l5 3 3 4v3l-7-1-5-3h-7l-3 3v4l14 1 6 3 3 5-1 8-5 4-7 2-11-1-6-5-1-7 5 1 4 4h12l2-7h-13l-7-3-3-4v-6l4-6z" fill="#DCC588"/>
<path transform="translate(1847,1234)" d="m0 0 11 2 4 6-1 4-6-2-4-3h-7l-4 1v7h15l7 4 1 9-3 5-5 3-11 1-7-2-4-5v-6l5 1 4 4h13v-7h-13l-7-3-2-2v-10l5-5z" fill="#DCC688"/>
<path transform="translate(1652,1235)" d="m0 0h13l6 3 3 6-5 1-8-4h-6l-3 2v5l13 1 7 3 2 3v9l-5 5-9 2-10-1-5-4-1-8 5 1 5 4h11l1-1v-5l-13-1-8-4-1-2v-8l5-6z" fill="#DEC78A"/>
<path transform="translate(990,515)" d="m0 0 3 1-6 4 1 5 1 1 20-1 11 1h12l12 1h12v-3l4 2 4 6-2 2-12 1-41-2h-29l-2-3 3-7 5-5z" fill="#C9B278"/>
<path transform="translate(731,1234)" d="m0 0h3l-1 4-7 7-4 5 1 4 10 11 4 3v2h-9l-12-12h-2l-1 10-1 2h-8v-35h8l1 3v11l11-12z" fill="#DDC689"/>
<path transform="translate(300,1235)" d="m0 0h8l1 2v25l4 2 8-1 1-2v-25l1-1h7l1 1v23l-3 7-3 3-3 1h-14l-5-4-3-7z" fill="#DDC689"/>
<path transform="translate(1708,1235)" d="m0 0h26l2 4-7 2h-13v8l12 1 3 3-1 2-13 2v6l18 2 1 4-1 1h-26l-1-8z" fill="#DDC789"/>
<path transform="translate(772,1235)" d="m0 0h26l1 5-8 1h-11v8l14 1 1 4-7 2h-8v8l19 1 1 4-1 1h-27z" fill="#DFC88B"/>
<path transform="translate(1279,1235)" d="m0 0h26l1 5-7 1h-12v8l14 1 1 4-1 1-14 1 1 8 18 1v5h-26l-1-1z" fill="#DEC78A"/>
<path transform="translate(1e3 1235)" d="m0 0h26l1 5-10 1h-9l1 8 13 1v5l-14 1 1 8 18 1v5h-27z" fill="#DFC98B"/>
<path transform="translate(1031,722)" d="m0 0 9 1 31 11 9 5 4 5 3 9 3 23 3 15v4h-2l-5-12-3-17-4-16-4-5-5 1-11 6 2-4 8-6-4-3-27-12-7-4z" fill="#0D2524"/>
<path transform="translate(862,836)" d="m0 0 9 2 11 9 4 4v2l4 2 8 7 7 3 7-3 18-14 4-5 5-3-1 4-9 11-10 8-8 10-3 6-4-2-11-9-13-13-7-8-8-7-3-2z" fill="#E0CA8D"/>
<path transform="translate(942,1235)" d="m0 0h28l-1 6-18 24h18l1 4-1 1h-29l1-5 8-11 9-11 2-3h-18l-1-4z" fill="#E0CA8C"/>
<path transform="translate(650,1240)" d="m0 0h7l5 3 1 2v15l-4 4-9 1-5-2-2-3v-14l2-4z" fill="#0D2524"/>
<path transform="translate(1140,860)" d="m0 0h7l3 7-2 6-6 3h-3l-1 3-8-1 4 5-7-1-3-3-6-3 3-1v-11h1v7l3-1 5-8z" fill="#D0BD8A"/>
<path transform="translate(430,1235)" d="m0 0h28l-1 5-9 2v27l-1 1h-7l-1-1-1-28-8-1-1-4z" fill="#DFC98C"/>
<path transform="translate(1408,1235)" d="m0 0h6l3 2v28h17l1 5h-26l-1-1-1-33z" fill="#C8B075"/>
<path transform="translate(573,1235)" d="m0 0h29v5l-11 1 1 28-1 1h-7l-1-7v-21l-1-1-9-1-1-4z" fill="#DEC789"/>
<path transform="translate(1770,1235)" d="m0 0h28l-1 5-9 1v29h-8l-1-29-10-2z" fill="#DFC98C"/>
<path transform="translate(175,1235)" d="m0 0h27v5l-9 2-1 28h-7l-1-2-1-27-8-1-2-3z" fill="#DDC689"/>
<path transform="translate(1077,1240)" d="m0 0 9 1 3 4v16l-4 3h-12v-23z" fill="#0D2524"/>
<path transform="translate(1060,890)" d="m0 0h3l-1 5-3 3-2 7v7l-2 3-4-1-6 4-2 5v11l1 7-5 2h-5v-13l4-10 4-7 5-4 4-1 4-13z" fill="#08191B"/>
<path transform="translate(1136,888)" d="m0 0 2 2v12l-5 12-5 4-8 3-8-1-3-8-1-5 4-3h2v2l4 2 9 1 5-5h3z" fill="#E8D7A8"/>
<path transform="translate(899,1235)" d="m0 0h6l2 1v34h-8z" fill="#D9C284"/>
<path transform="translate(993,850)" d="m0 0 1 2-7 13-8 10-13 13-9 7h-5l-3 1v-2l4-1 2-5 14-10 8-8 11-14z" fill="#0D2524"/>
<path transform="translate(1032,922)" d="m0 0 4 1-1 7-2 15-1 1-10 1-2-1 2-10 6-9z" fill="#E1CB90"/>
<path transform="translate(1024,878)" d="m0 0v3l-12 16-11 12-4 5-5 4-4-2 2-4 11-11 7-8 12-12z" fill="#0D2524"/>
<path transform="translate(1079,747)" d="m0 0 5 1 2 1 3 21 4 21v4h-2l-5-12-3-17-4-16z" fill="#091B1D"/>
<path transform="translate(902,887)" d="m0 0 2 1 1 8h2l7 8 5 2h8l7-3 1 2-13 8-3 1-9-6-7-7-3-5v-6z" fill="#E0CA8D"/>
<path transform="translate(1078,924)" d="m0 0 8 4h9l4-4 4 1-1 5-7 6-12 2-4-5-3-7z" fill="#E6D5A6"/>
<path transform="translate(1173,1074)" d="m0 0 2 2v82h-1l-2-38v-43z" fill="#071519"/>
<path transform="translate(1241,444)" d="m0 0 15 8 10 6-1 7h-2l-1 3-6-5v-2h-2v-2l-4-2-6-5-2-5z" fill="#E2CC90"/>
<path transform="translate(1592,1062)" d="m0 0h52l3 1 14 1v1h-76v-1z" fill="#071519"/>
<path transform="translate(1409,1258)" d="m0 0 7 2 1 5h17l1 5h-26z" fill="#E3CD90"/>
<path transform="translate(1008,509)" d="m0 0h20l11 3-8 4h-17l-6-4z" fill="#B19452"/>
<path transform="translate(1079,881)" d="m0 0 1 2h2l2 7-1 2-12-2-8 3v-3l-6 3 2-4 8-5z" fill="#0D2524"/>
<path transform="translate(903,889)" d="m0 0h4l3 4v2l8 6 9 1 8-2 1 4-5 1-5 2h-7l-6-3-6-6v-2h-2z" fill="#EBDBAD"/>
<path transform="translate(818,431)" d="m0 0 2 1 1 2-4 4-10 6-2 2-16 12h-2v2h-2l-2 4-1-2 4-6 5-3 9-7 1-3h2l1-4z" fill="#E3CE95"/>
<path transform="translate(1224,1241)" d="m0 0h12l1 1v8l-2 2h-11l-1-1v-8z" fill="#0D2524"/>
<path transform="translate(1048,902)" d="m0 0v3l-11 12-9 11-4 6h-6l1-4 7-7 7-8 13-11z" fill="#0D2424"/>
<path transform="translate(842,774)" d="m0 0 14 8 19 12 11 7 2 2-6-1-17-9-16-11-7-6z" fill="#0E2625"/>
<path transform="translate(252,1240)" d="m0 0 6 2 1 6-2 4h-11l-1-1v-9z" fill="#0D2524"/>
<path transform="translate(415,1062)" d="m0 0h25v1l17 1v1h-83v-1l35-1z" fill="#071519"/>
<path transform="translate(1105,1088)" d="m0 0h28v1l-21 1-5 7-1 63h-1z" fill="#071519"/>
<path transform="translate(992,605)" d="m0 0 2 1 1-1 4 2h7l3-1 3 2v2l-13 1h-17l-7-3 4-1 8-1 5 1z" fill="#E4CE91"/>
<path transform="translate(1849,1255)" d="m0 0 6 1 1 5-3 3h-11l-2-1v-6l-2-1z" fill="#08181B"/>
<path transform="translate(991,907)" d="m0 0 3 1-6 7-14 11-13 1 1-2 11-5h2v-2l7-4 8-6z" fill="#E0CA8F"/>
<path transform="translate(743,476)" d="m0 0h1l1 41 1 3-1 64h-1l-1-59z" fill="#C5AD71"/>
<path transform="translate(967,880)" d="m0 0 4 1-2 4-12 10h-5l-3 1v-2l4-1 2-5z" fill="#0C2322"/>
<path transform="translate(1168,463)" d="m0 0 7 2 14 5 5 3-1 3h-7l-19-11z" fill="#E2CC92"/>
<path transform="translate(1650,1256)" d="m0 0h16l1 1v5l-2 2h-11l-2-1 1-5z" fill="#08171A"/>
<path transform="translate(372,1256)" d="m0 0h16v6l-2 2h-12l-1-3 2-4z" fill="#08171B"/>
<path transform="translate(1046,1088)" d="m0 0h32l-1 45h-1l-1-35-2-1-1-5-5-2-21-1z" fill="#071519"/>
<path transform="translate(1585,1256)" d="m0 0h16l1 5-3 3h-11l-2-3h2l1-3z" fill="#07171A"/>
<path transform="translate(853,474)" d="m0 0 3 1-16 9-14 8-15 9-9 6h-3v-2l28-16 24-14z" fill="#091A1D"/>
<path transform="translate(1078,872)" d="m0 0 5 1-1 4-3 5-8 2h-4l2-5 5-5z" fill="#DFC98D"/>
<path transform="translate(938,908)" d="m0 0 2 1-3 3 1 7 2 6 4 3 5 1-1 2-6-1-7-6-7-1 1-6z" fill="#E1CB8F"/>
<path transform="translate(870,460)" d="m0 0 3 3-15 9-2-1-13 3v-2l11-5z" fill="#E3CE94"/>
<path transform="translate(1094,899)" d="m0 0 5 1 8 7 4 6v5l-5 5-3-13-6-8z" fill="#091B1D"/>
<path transform="translate(1291,510)" d="m0 0h2v26h-1l-1-7-1-2h-2l-2-8-1-6 5-1z" fill="#E5CF92"/>
<path transform="translate(1037,778)" d="m0 0 2 3 1 8 8 11 1 3-5-2-7-8-2-4v-9z" fill="#08181B"/>
<path transform="translate(1034,925)" d="m0 0h1l-2 20-1 1-10 1-2-1 1-7 8 1 2-3 2-9z" fill="#E3D1A0"/>
<path transform="translate(1041,924)" d="m0 0h1l2 17-5 1-4-1 1-9 3-5h2z" fill="#0D2423"/>
<path transform="translate(1052,900)" d="m0 0h1l-1 8-10 5-2 6-4 5-3-1 2-4 9-11z" fill="#E0CE9D"/>
<path transform="translate(791,516)" d="m0 0h2v2h2v2h2l1 3v14l-4-5-2-5z" fill="#E5CF92"/>
<path transform="translate(1030,658)" d="m0 0 1 2h9l4 2h-65v-1l45-1z" fill="#BCA264"/>
<path transform="translate(1e3 904)" d="m0 0 2 1-2 4-4 5-5 4-4-2 2-4 8-7z" fill="#0A1C1E"/>
<path transform="translate(1e3 764)" d="m0 0h6l4 2 11 2v2h8v1h-17l-9-3z" fill="#BAA062"/>
<path transform="translate(1174,838)" d="m0 0m-3 1h3l-2 4-10 6h-2l-1 3-5-2-4-3 10-1 2 1 2-4z" fill="#D0BC85"/>
<path transform="translate(1078,924)" d="m0 0 8 4h9l4-4h3l-2 5-7 3-9-1-6-3-2-3z" fill="#E5CF92"/>
<path transform="translate(1024,920)" d="m0 0 3 1-2 4-4 3-7 2-5 3-3-1 12-9z" fill="#E2CC91"/>
<path transform="translate(1125,914)" d="m0 0h5v3l-10 4-6-1-1-4z" fill="#E1CB90"/>
<path transform="translate(2044,1562)" d="m0 0h1v56h-1l-1-21-1-6 1-7z" fill="#071519"/>
<path transform="translate(1097,872)" d="m0 0h12l9 2v1h-15l-7 2h-6l-5 4 2-4 4-3z" fill="#CAB57D"/>
<path transform="translate(1107,860)" d="m0 0h10v6l-2 1-8-1v-2h-6l3-3z" fill="#DCC588"/>
<path transform="translate(1027,385)" d="m0 0 5 1 21 12 10 6v2l-5-2-14-8-17-10z" fill="#0A1C1E"/>
<path transform="translate(1088,871)" d="m0 0 3 1-5 7-2 6h-2v-2h-2l1-6 4-5z" fill="#08191C"/>
<path transform="translate(379,1088)" d="m0 0h24l-1 10-2-1-3-6-3-1-15-1z" fill="#071519"/>
<path transform="translate(1064,919)" d="m0 0 4 1 8 7 2 3-1 5-1-2h-2l-5-8z" fill="#0A1D1F"/>
<path transform="translate(1069,739)" d="m0 0 4 1 2 1v2h-3v2l-12 7v-3l9-7z" fill="#0B1E1F"/>
<path transform="translate(1245,519)" d="m0 0 1 2-2 9-3 6h-1v-13z" fill="#E5CF92"/>
<path transform="translate(1052,905)" d="m0 0h1v5l3-2 1 4-2 3-4-1-6 3v-3l4-2-3-2 5-2z" fill="#0D2524"/>
<path transform="translate(1529,1248)" d="m0 0 3 3 1 7h-7l1-6z" fill="#0E2625"/>
<path transform="translate(1123,856)" d="m0 0 2 1-2 5-2 3-1 7-2-3v-10z" fill="#08191B"/>
<path transform="translate(970,720)" d="m0 0 3 1-8 4-4 3-11 4-4 1 3-3z" fill="#B99F60"/>
<path transform="translate(987,921)" d="m0 0 2 1-2 4-5 5-6 2 1-4z" fill="#DEC98D"/>
<path transform="translate(1580,1088)" d="m0 0h27l-1 8-1-3-4-2v-2h-21z" fill="#071519"/>
<path transform="translate(1357,1248)" d="m0 0 2 2 2 5v3h-7l-1-2z" fill="#0D2323"/>
<path transform="translate(962,582)" d="m0 0h6l-4 14-2-4z" fill="#E5CF92"/>
<path transform="translate(1025,924)" d="m0 0 2 1-1 3-1 4-1 2h-6l1-4z" fill="#091A1D"/>
<path transform="translate(1042,911)" d="m0 0h2v2h-2l-2 6-4 5-3-1 2-4z" fill="#E3D2A5"/>
<path transform="translate(1071,889)" d="m0 0 10 2v1l-12 1-1 1h-5l3-3z" fill="#D2BC81"/>
<path transform="translate(953,840)" d="m0 0v3l-6 7-6 5h-2l2-4z" fill="#DCC689"/>
<path transform="translate(439,1242)" d="m0 0 4 1-2 4-1 22h-1z" fill="#C0A76A"/>
<path transform="translate(1157,846)" d="m0 0 5 1v2h-2l-1 3-5-2-4-3z" fill="#DAC386"/>
<path transform="translate(1245,799)" d="m0 0 2 1-8 5-10 5 2-4z" fill="#C3AB6F"/>
<path transform="translate(796,449)" d="m0 0m-1 1m-2 1h2l-1 3-5 4h-2v2h-2l-2 4-1-2 4-6 5-3z" fill="#E5CF92"/>
<path transform="translate(490,1265)" d="m0 0h5l2 3-2 2h-5l-1-4z" fill="#E3D7B8"/>
<path transform="translate(1049,914)" d="m0 0 3 1-4 4-2 4-2 1-1-4 4-5z" fill="#DFCA91"/>
<path transform="translate(1132,1265)" d="m0 0h5l1 4-1 1h-5l-1-4z" fill="#E9DFC5"/>
<path transform="translate(956,887)" d="m0 0 4 1-9 8h-2v-2l4-1 2-5z" fill="#08181B"/>
<path transform="translate(942,834)" d="m0 0 1 3-4 5h-2-3l5-6z" fill="#D0BC87"/>
<path transform="translate(851,832)" d="m0 0 12 2 1 2h-2l-1 2-10-5z" fill="#D4BE85"/>
<path transform="translate(1019,322)" d="m0 0 4 3-1 3h-5l-1-4h3z" fill="#B19452"/>
</svg>
